# xmcd
#
# Track frame offsets:
#	150
#	11803
#	21986
#	30524
#	39960
#	49433
#	58639
#	67883
#	78134
#	90326
#	100572
#	110245
#	119390
#	130150
#	142711
#	153913
#	162462
#	172620
#	182514
#	193034
#	204675
#
# Disc length: 2847 seconds
#
# Revision: 0
# Processed by: cddbd v1.5.2PL0 Copyright (c) Steve Scherf et al.
# Submitted via: dBpowerAMP V4.0
#
DISCID=080b1d15
DTITLE=Doug Kershaw - Kershaw: Genus Cambarus
DYEAR=1900
DGENRE=
TTITLE0=Louisiana Man
TTITLE1=Kaw-Liga
TTITLE2=Sweet Thing (Tell Me That You Love Me)
TTITLE3=Look Around (Take a Look at Me)
TTITLE4=Diggy Liggy Lo
TTITLE5=(Our Own) Jole Bion
TTITLE6=We'll Do It Anyway
TTITLE7=I Never Had the Blues
TTITLE8=Going Down the Road
TTITLE9=Never Love Again
TTITLE10=Cajun Joe (The Bully of the Bayou)
TTITLE11=I'll Understand
TTITLE12=Hey Sheriff
TTITLE13=Mister Love
TTITLE14=Make Me Realize
TTITLE15=Cheated Too
TTITLE16=Love Me to Pieces
TTITLE17=You'll See
TTITLE18=Hey, You There
TTITLE19=Money
TTITLE20=So Lovely Baby
EXTD=
EXTT0=
EXTT1=
EXTT2=
EXTT3=
EXTT4=
EXTT5=
EXTT6=
EXTT7=
EXTT8=
EXTT9=
EXTT10=
EXTT11=
EXTT12=
EXTT13=
EXTT14=
EXTT15=
EXTT16=
EXTT17=
EXTT18=
EXTT19=
EXTT20=
PLAYORDER=
